#N canvas -8 -8 1920 1007 12;
#X text 39 849 YM2612 in Pure Data:;
#X text 35 881 The Yamaha YM2612 (OPN2) was used mainly in the Sega
Mega Drive/Genesis. It has 6 FM voices with 4ops per channel. This
Pure Data Patch contains the 8 standard algorithms. Open each subpatch
to view. Hook the sliders up to the inlets and the outlet to your dac.
WIP.;
#X obj 1344 103 cnv 15 125 230 empty empty Toolbox 37 12 0 14 -228856
-258113 0;
#X obj 964 638 dac~;
#N canvas 146 22 904 583 algo0 0;
#X obj 399 193 *~;
#X obj 209 89 *~;
#X obj 209 133 +~;
#X floatatom 446 175 5 0 0 0 - - -;
#X floatatom 250 71 5 0 0 0 - - -;
#X floatatom 407 110 5 0 0 0 - - -;
#X obj 208 40 osc~;
#X obj 399 152 osc~;
#X obj 767 427 *~;
#X obj 575 309 *~;
#X obj 575 367 +~;
#X floatatom 814 411 5 0 0 0 - - -;
#X floatatom 616 291 5 0 0 0 - - -;
#X floatatom 783 352 5 0 0 0 - - -;
#X obj 575 270 osc~;
#X obj 768 387 osc~;
#X obj 400 250 +~;
#X floatatom 229 -5 5 0 0 0 - - -;
#X floatatom 588 228 5 0 0 0 - - -;
#X text 298 73 Osc1 Amp;
#X text 492 177 Osc2 Amp;
#X text 657 293 Osc3 Amp;
#X text 858 410 Main Volume;
#X obj 766 489 outlet;
#X obj 208 -35 inlet;
#X obj 399 80 inlet;
#X obj 575 198 inlet;
#X obj 768 320 inlet;
#X obj 814 377 inlet;
#X connect 0 0 16 0;
#X connect 1 0 2 0;
#X connect 2 0 7 0;
#X connect 3 0 0 1;
#X connect 4 0 1 1;
#X connect 6 0 1 0;
#X connect 7 0 0 0;
#X connect 8 0 23 0;
#X connect 9 0 10 0;
#X connect 10 0 15 0;
#X connect 11 0 8 1;
#X connect 12 0 9 1;
#X connect 14 0 9 0;
#X connect 15 0 8 0;
#X connect 16 0 14 0;
#X connect 24 0 6 0;
#X connect 24 0 17 0;
#X connect 25 0 7 0;
#X connect 25 0 5 0;
#X connect 26 0 14 0;
#X connect 26 0 18 0;
#X connect 27 0 15 0;
#X connect 27 0 13 0;
#X connect 28 0 11 0;
#X restore 1349 131 pd algo0;
#X f 16;
#N canvas 323 338 951 567 algo1 0;
#X obj 399 193 *~;
#X obj 229 207 *~;
#X obj 229 251 +~;
#X floatatom 446 175 5 0 0 0 - - -;
#X floatatom 270 189 5 0 0 0 - - -;
#X floatatom 407 110 5 0 0 0 - - -;
#X obj 228 158 osc~;
#X obj 399 152 osc~;
#X obj 437 461 *~;
#X obj 303 344 *~;
#X obj 303 402 +~;
#X floatatom 484 445 5 0 0 0 - - -;
#X floatatom 344 326 5 0 0 0 - - -;
#X floatatom 453 386 5 0 0 0 - - -;
#X obj 303 305 osc~;
#X obj 438 421 osc~;
#X obj 400 250 +~;
#X floatatom 249 113 5 0 0 0 - - -;
#X floatatom 316 263 5 0 0 0 - - -;
#X text 318 191 Osc1 Amp;
#X text 487 177 Osc2 Amp;
#X text 385 328 Osc3 Amp;
#X text 528 444 Main Volume;
#X obj 436 523 outlet;
#X obj 228 81 inlet;
#X obj 399 80 inlet;
#X obj 303 230 inlet;
#X obj 438 354 inlet;
#X obj 484 416 inlet;
#X connect 0 0 16 0;
#X connect 1 0 2 0;
#X connect 2 0 14 0;
#X connect 3 0 0 1;
#X connect 4 0 1 1;
#X connect 6 0 1 0;
#X connect 7 0 0 0;
#X connect 8 0 23 0;
#X connect 9 0 10 0;
#X connect 10 0 15 0;
#X connect 11 0 8 1;
#X connect 12 0 9 1;
#X connect 14 0 9 0;
#X connect 15 0 8 0;
#X connect 16 0 14 0;
#X connect 24 0 6 0;
#X connect 24 0 17 0;
#X connect 25 0 7 0;
#X connect 25 0 5 0;
#X connect 26 0 14 0;
#X connect 26 0 18 0;
#X connect 27 0 15 0;
#X connect 27 0 13 0;
#X connect 28 0 11 0;
#X restore 1349 154 pd algo1;
#X f 16;
#N canvas 899 361 778 572 algo2 0;
#X obj 91 157 *~;
#X obj 485 182 *~;
#X obj 485 226 +~;
#X floatatom 138 139 5 0 0 0 - - -;
#X floatatom 526 164 5 0 0 0 - - -;
#X floatatom 99 74 5 0 0 0 - - -;
#X obj 484 133 osc~;
#X obj 91 116 osc~;
#X obj 558 389 *~;
#X obj 310 272 *~;
#X obj 310 330 +~;
#X floatatom 605 373 5 0 0 0 - - -;
#X floatatom 351 254 5 0 0 0 - - -;
#X floatatom 574 314 5 0 0 0 - - -;
#X obj 310 233 osc~;
#X obj 559 349 osc~;
#X obj 92 214 +~;
#X floatatom 505 88 5 0 0 0 - - -;
#X floatatom 323 191 5 0 0 0 - - -;
#X text 574 166 Osc1 Amp;
#X text 183 143 Osc2 Amp;
#X text 392 256 Osc3 Amp;
#X text 645 374 Main Volume;
#X obj 557 451 outlet;
#X obj 484 56 inlet;
#X obj 91 44 inlet;
#X obj 310 158 inlet;
#X obj 559 282 inlet;
#X obj 605 338 inlet;
#X connect 0 0 16 0;
#X connect 1 0 2 0;
#X connect 2 0 15 0;
#X connect 3 0 0 1;
#X connect 4 0 1 1;
#X connect 6 0 1 0;
#X connect 7 0 0 0;
#X connect 8 0 23 0;
#X connect 9 0 10 0;
#X connect 10 0 15 0;
#X connect 11 0 8 1;
#X connect 12 0 9 1;
#X connect 14 0 9 0;
#X connect 15 0 8 0;
#X connect 16 0 14 0;
#X connect 24 0 6 0;
#X connect 24 0 17 0;
#X connect 25 0 7 0;
#X connect 25 0 5 0;
#X connect 26 0 14 0;
#X connect 26 0 18 0;
#X connect 27 0 15 0;
#X connect 27 0 13 0;
#X connect 28 0 11 0;
#X restore 1349 177 pd algo2;
#X f 16;
#N canvas 1050 280 778 572 algo3 0;
#X obj 383 319 *~;
#X obj 244 163 *~;
#X obj 244 207 +~;
#X floatatom 430 301 5 0 0 0 - - -;
#X floatatom 285 145 5 0 0 0 - - -;
#X floatatom 391 236 5 0 0 0 - - -;
#X obj 243 107 osc~;
#X obj 383 278 osc~;
#X obj 468 611 *~;
#X obj 220 494 *~;
#X obj 220 552 +~;
#X floatatom 515 595 5 0 0 0 - - -;
#X floatatom 261 476 5 0 0 0 - - -;
#X floatatom 484 536 5 0 0 0 - - -;
#X obj 220 455 osc~;
#X obj 469 571 osc~;
#X obj 384 376 +~;
#X floatatom 264 69 5 0 0 0 - - -;
#X floatatom 233 413 5 0 0 0 - - -;
#X text 333 147 Osc1 Amp;
#X text 475 305 Osc2 Amp;
#X text 302 478 Osc3 Amp;
#X text 555 596 Main Volume;
#X obj 467 673 outlet;
#X obj 243 37 inlet;
#X obj 383 206 inlet;
#X obj 220 380 inlet;
#X obj 469 504 inlet;
#X obj 515 560 inlet;
#X connect 0 0 16 0;
#X connect 1 0 2 0;
#X connect 2 0 7 0;
#X connect 3 0 0 1;
#X connect 4 0 1 1;
#X connect 6 0 1 0;
#X connect 7 0 0 0;
#X connect 8 0 23 0;
#X connect 9 0 10 0;
#X connect 10 0 15 0;
#X connect 11 0 8 1;
#X connect 12 0 9 1;
#X connect 14 0 9 0;
#X connect 15 0 8 0;
#X connect 16 0 15 0;
#X connect 24 0 6 0;
#X connect 24 0 17 0;
#X connect 25 0 7 0;
#X connect 25 0 5 0;
#X connect 26 0 14 0;
#X connect 26 0 18 0;
#X connect 27 0 15 0;
#X connect 27 0 13 0;
#X connect 28 0 11 0;
#X restore 1349 200 pd algo3;
#X f 16;
#N canvas 819 273 788 622 algo4 0;
#X obj 190 386 *~;
#X obj 32 283 *~;
#X obj 32 327 +~;
#X floatatom 237 368 5 0 0 0 - - -;
#X floatatom 73 265 5 0 0 0 - - -;
#X floatatom 198 303 5 0 0 0 - - -;
#X obj 31 227 osc~;
#X obj 190 345 osc~;
#X obj 596 461 *~;
#X obj 348 344 *~;
#X obj 348 402 +~;
#X floatatom 643 443 5 0 0 0 - - -;
#X floatatom 389 326 5 0 0 0 - - -;
#X floatatom 612 386 5 0 0 0 - - -;
#X obj 348 305 osc~;
#X obj 597 421 osc~;
#X obj 191 443 +~;
#X floatatom 52 189 5 0 0 0 - - -;
#X floatatom 361 263 5 0 0 0 - - -;
#X text 121 267 Osc1 Amp;
#X text 282 372 Osc2 Amp;
#X text 430 328 Osc3 Amp;
#X text 683 444 Main Volume;
#X obj 595 523 outlet;
#X obj 31 157 inlet;
#X obj 190 273 inlet;
#X obj 348 230 inlet;
#X obj 597 354 inlet;
#X obj 643 408 inlet;
#X connect 0 0 16 0;
#X connect 1 0 2 0;
#X connect 2 0 7 0;
#X connect 3 0 0 1;
#X connect 4 0 1 1;
#X connect 6 0 1 0;
#X connect 7 0 0 0;
#X connect 8 0 23 0;
#X connect 9 0 10 0;
#X connect 10 0 15 0;
#X connect 11 0 8 1;
#X connect 12 0 9 1;
#X connect 14 0 9 0;
#X connect 15 0 8 0;
#X connect 16 0 8 0;
#X connect 24 0 6 0;
#X connect 24 0 17 0;
#X connect 25 0 7 0;
#X connect 25 0 5 0;
#X connect 26 0 14 0;
#X connect 26 0 18 0;
#X connect 27 0 15 0;
#X connect 27 0 13 0;
#X connect 28 0 11 0;
#X restore 1349 223 pd algo4;
#X f 16;
#X text 1248 225 Needs testing;
#N canvas 537 338 904 583 algo5 0;
#X obj 322 180 *~;
#X obj 98 287 *~;
#X obj 98 331 +~;
#X floatatom 369 162 5 0 0 0 - - -;
#X floatatom 139 269 5 0 0 0 - - -;
#X floatatom 330 97 5 0 0 0 - - -;
#X obj 97 238 osc~;
#X obj 322 139 osc~;
#X obj 709 435 *~;
#X obj 323 384 *~;
#X obj 323 442 +~;
#X floatatom 756 419 5 0 0 0 - - -;
#X floatatom 375 366 5 0 0 0 - - -;
#X floatatom 338 501 5 0 0 0 - - -;
#X obj 323 345 osc~;
#X obj 323 536 osc~;
#X obj 323 237 +~;
#X floatatom 118 193 5 0 0 0 - - -;
#X floatatom 336 303 5 0 0 0 - - -;
#X text 187 271 Osc1 Amp;
#X text 415 164 Osc2 Amp;
#X text 405 368 Osc3 Amp;
#X text 800 418 Main Volume;
#X obj 709 533 outlet;
#X obj 97 163 inlet;
#X obj 322 67 inlet;
#X obj 323 273 inlet;
#X obj 323 469 inlet;
#X obj 756 385 inlet;
#X connect 0 0 16 0;
#X connect 1 0 2 0;
#X connect 2 0 7 0;
#X connect 2 0 14 0;
#X connect 2 0 15 0;
#X connect 3 0 0 1;
#X connect 4 0 1 1;
#X connect 6 0 1 0;
#X connect 7 0 0 0;
#X connect 8 0 23 0;
#X connect 9 0 10 0;
#X connect 10 0 8 0;
#X connect 11 0 8 1;
#X connect 12 0 9 1;
#X connect 14 0 9 0;
#X connect 15 0 8 0;
#X connect 16 0 8 0;
#X connect 24 0 6 0;
#X connect 24 0 17 0;
#X connect 25 0 7 0;
#X connect 25 0 5 0;
#X connect 26 0 14 0;
#X connect 26 0 18 0;
#X connect 27 0 15 0;
#X connect 27 0 13 0;
#X connect 28 0 11 0;
#X restore 1349 246 pd algo5;
#X f 16;
#X text 1248 248 Needs testing;
#N canvas 567 338 799 495 algo6 0;
#X obj 279 288 *~;
#X obj 54 181 *~;
#X obj 54 225 +~;
#X floatatom 326 270 5 0 0 2 Osc_Amp_2 - -;
#X floatatom 95 163 5 0 0 2 Osc_Amp_1 - -;
#X floatatom 287 205 5 0 0 0 - - -;
#X obj 53 132 osc~;
#X obj 279 247 osc~;
#X obj 583 383 *~;
#X obj 443 292 *~;
#X obj 443 350 +~;
#X floatatom 630 367 5 0 0 1 Main_Volume - -;
#X floatatom 495 274 5 0 0 2 Osc_Amp_3 - -;
#X floatatom 597 306 5 0 0 0 - - -;
#X obj 443 253 osc~;
#X obj 582 341 osc~;
#X obj 280 345 +~;
#X floatatom 74 87 5 0 0 0 - - -;
#X floatatom 456 211 5 0 0 0 - - -;
#X obj 583 420 outlet;
#X obj 53 57 inlet;
#X obj 279 175 inlet;
#X obj 443 181 inlet;
#X obj 582 274 inlet;
#X obj 630 333 inlet;
#X connect 0 0 16 0;
#X connect 1 0 2 0;
#X connect 2 0 7 0;
#X connect 3 0 0 1;
#X connect 4 0 1 1;
#X connect 6 0 1 0;
#X connect 7 0 0 0;
#X connect 8 0 19 0;
#X connect 9 0 10 0;
#X connect 10 0 8 0;
#X connect 11 0 8 1;
#X connect 12 0 9 1;
#X connect 14 0 9 0;
#X connect 15 0 8 0;
#X connect 16 0 8 0;
#X connect 20 0 6 0;
#X connect 20 0 17 0;
#X connect 21 0 7 0;
#X connect 21 0 5 0;
#X connect 22 0 14 0;
#X connect 22 0 18 0;
#X connect 23 0 15 0;
#X connect 23 0 13 0;
#X connect 24 0 11 0;
#X restore 1349 269 pd algo6;
#X f 16;
#X text 1248 270 Needs testing;
#X text 1248 293 Needs testing;
#N canvas 567 338 799 495 algo7 0;
#X obj 157 181 *~;
#X obj 54 181 *~;
#X obj 54 225 +~;
#X floatatom 204 163 5 0 0 2 Osc_Amp_2 - -;
#X floatatom 95 163 5 0 0 2 Osc_Amp_1 - -;
#X floatatom 165 88 5 0 0 0 - - -;
#X obj 53 132 osc~;
#X obj 157 132 osc~;
#X obj 319 343 *~;
#X obj 269 175 *~;
#X obj 269 233 +~;
#X floatatom 366 327 5 0 0 1 Main_Volume - -;
#X floatatom 321 157 5 0 0 2 Osc_Amp_3 - -;
#X floatatom 333 266 5 0 0 0 - - -;
#X obj 269 136 osc~;
#X obj 318 301 osc~;
#X obj 158 226 +~;
#X floatatom 74 87 5 0 0 0 - - -;
#X floatatom 282 94 5 0 0 0 - - -;
#X obj 319 380 outlet;
#X obj 53 57 inlet;
#X obj 157 57 inlet;
#X obj 269 64 inlet;
#X obj 318 234 inlet;
#X obj 366 293 inlet;
#X connect 0 0 16 0;
#X connect 1 0 2 0;
#X connect 2 0 8 0;
#X connect 3 0 0 1;
#X connect 4 0 1 1;
#X connect 6 0 1 0;
#X connect 7 0 0 0;
#X connect 8 0 19 0;
#X connect 9 0 10 0;
#X connect 10 0 8 0;
#X connect 11 0 8 1;
#X connect 12 0 9 1;
#X connect 14 0 9 0;
#X connect 15 0 8 0;
#X connect 16 0 8 0;
#X connect 20 0 6 0;
#X connect 20 0 17 0;
#X connect 21 0 7 0;
#X connect 21 0 5 0;
#X connect 22 0 14 0;
#X connect 22 0 18 0;
#X connect 23 0 15 0;
#X connect 23 0 13 0;
#X connect 24 0 11 0;
#X restore 1349 292 pd algo7;
#X f 16;
#X obj 622 129 notein;
#X text 619 102 MIDI In;
#X obj 622 163 mtof;
#X floatatom 582 148 5 0 0 0 MIDI_Note - -;
#X floatatom 582 182 5 0 0 0 Osc_Freq - -;
#X obj 736 354 *~;
#X obj 623 246 *~;
#X obj 623 294 +~;
#X floatatom 772 336 5 0 0 0 - - -;
#X floatatom 658 228 5 0 0 0 - - -;
#X obj 622 197 osc~;
#X obj 736 313 osc~;
#X obj 963 595 *~;
#X obj 850 473 *~;
#X obj 850 535 +~;
#X obj 850 434 osc~;
#X obj 964 555 osc~;
#X obj 737 414 +~;
#X obj 1000 577 line~;
#X floatatom 850 353 5 0 0 1 - - -;
#X obj 850 324 ctlin 22 2;
#X obj 850 387 mtof;
#X obj 736 214 ctlin 21 2;
#X obj 736 272 mtof;
#X floatatom 736 245 5 0 0 0 - - -;
#X floatatom 684 291 5 0 0 0 - - -;
#X floatatom 798 406 5 0 0 0 - - -;
#X floatatom 964 474 5 0 0 1 - - -;
#X obj 964 508 mtof;
#X floatatom 912 527 5 0 0 0 - - -;
#X obj 964 445 ctlin 23 2;
#X floatatom 886 455 5 0 0 0 - - -;
#X obj 772 313 ctlin 25 2;
#X text 1205 383 Over here is your toolbox. Open a subpatch and copy
the algorithm into the main patch.;
#X obj 658 205 ctlin 24 2;
#X obj 886 433 ctlin 26 2;
#X connect 16 0 19 0;
#X connect 16 0 18 0;
#X connect 18 0 20 0;
#X connect 18 0 26 0;
#X connect 21 0 33 0;
#X connect 22 0 23 0;
#X connect 23 0 27 0;
#X connect 24 0 21 1;
#X connect 25 0 22 1;
#X connect 26 0 22 0;
#X connect 27 0 21 0;
#X connect 28 0 3 0;
#X connect 29 0 30 0;
#X connect 30 0 32 0;
#X connect 31 0 29 0;
#X connect 32 0 28 0;
#X connect 33 0 31 0;
#X connect 34 0 28 1;
#X connect 35 0 37 0;
#X connect 36 0 35 0;
#X connect 37 0 31 0;
#X connect 37 0 42 0;
#X connect 38 0 40 0;
#X connect 39 0 27 0;
#X connect 39 0 41 0;
#X connect 40 0 39 0;
#X connect 43 0 44 0;
#X connect 44 0 45 0;
#X connect 44 0 32 0;
#X connect 46 0 43 0;
#X connect 47 0 29 1;
#X connect 48 0 24 0;
#X connect 50 0 25 0;
#X connect 51 0 47 0;
